HIERARCHY
ROOT Hips
{
  OFFSET -17.8222 7.7 127.125
  CHANNELS 6 Xposition Yposition Zposition Zrotation Xrotation Yrotation
  JOINT Spine
  {
    OFFSET 0.0 0.0 0.0
    CHANNELS 3 Zrotation Xrotation Yrotation
    JOINT Spine1
    {
      OFFSET 38.68 0.0 0.0
      CHANNELS 3 Zrotation Xrotation Yrotation
      JOINT Neck
      {
        OFFSET 0.0 0.0 0.0
        CHANNELS 3 Zrotation Xrotation Yrotation
        JOINT Head
        {
          OFFSET 0.0 0.0 0.0
          CHANNELS 3 Zrotation Xrotation Yrotation
          End Site
          {
            OFFSET 17 0 0
          }
        }
      }
      JOINT LeftShoulder
      {
        OFFSET 0.0 0.0 14.2
        CHANNELS 3 Zrotation Xrotation Yrotation
        JOINT LeftArm
        {
          OFFSET 0.0 0.0 0.0
          CHANNELS 3 Zrotation Xrotation Yrotation
          JOINT LeftForeArm
          {
            OFFSET 21.3 0.0 0.0
            CHANNELS 3 Zrotation Xrotation Yrotation
            JOINT LeftHand
            {
              OFFSET 21.3 0.0 0.0
              CHANNELS 3 Zrotation Xrotation Yrotation
              End Site
              {
                OFFSET 7.2 0 0
              }
            }
          }
        }
      }
      JOINT RightShoulder
      {
        OFFSET 0.0 0.0 -14.2
        CHANNELS 3 Zrotation Xrotation Yrotation
        JOINT RightArm
        {
          OFFSET 0.0 0.0 0.0
          CHANNELS 3 Zrotation Xrotation Yrotation
          JOINT RightForeArm
          {
            OFFSET 21.3 0.0 0.0
            CHANNELS 3 Zrotation Xrotation Yrotation
            JOINT RightHand
            {
              OFFSET 21.3 0.0 0.0
              CHANNELS 3 Zrotation Xrotation Yrotation
              End Site
              {
                OFFSET 7.2 0 0
              }
            }
          }
        }
      }
    }
  }
  JOINT LeftUpLeg
  {
    OFFSET 0.0 0.0 14.2
    CHANNELS 3 Zrotation Xrotation Yrotation
    JOINT LeftLeg
    {
      OFFSET 21.3 0.0 0.0
      CHANNELS 3 Zrotation Xrotation Yrotation
      JOINT LeftFoot
      {
        OFFSET 21.3 0.0 0.0
        CHANNELS 3 Zrotation Xrotation Yrotation
        End Site
        {
          OFFSET 0 -10.8 0
        }
      }
    }
  }
  JOINT RightUpLeg
  {
    OFFSET 0.0 0.0 -14.2
    CHANNELS 3 Zrotation Xrotation Yrotation
    JOINT RightLeg
    {
      OFFSET 21.3 0.0 0.0
      CHANNELS 3 Zrotation Xrotation Yrotation
      JOINT RightFoot
      {
        OFFSET 21.3 0.0 0.0
        CHANNELS 3 Zrotation Xrotation Yrotation
        End Site
        {
          OFFSET 0 -10.8 0
        }
      }
    }
  }
  JOINT Tail
  {
    OFFSET 0.0 0.0 0.0
    CHANNELS 3 Zrotation Xrotation Yrotation
    JOINT Tail1
    {
      OFFSET 0.0 0.0 0.0
      CHANNELS 3 Zrotation Xrotation Yrotation
      End Site
      {
        OFFSET 12 0 0
      }
    }
  }
}
MOTION
Frames:	17
Frame Time:	0.0166667
-259.573 43.7806 -420.777 -3.30582 -5.30966 161.305 -170.325 2.25378 -15.9068 -17.9928 -9.28237 39.2951 -28.5495 17.797 -9.8604 -143.892 72.9662 142.519 -111.408 -38.4802 -137.187 140.829 -23.4963 -125.923 -48.697 10.6112 -4.21629 -8.54332 1.76789 -14.1737 79.6622 -22.0772 39.8324 50.6552 -64.0118 -32.7579 -52.9971 -16.7629 -0.839199 -10.8291 1.17237 -1.01398 -120.627 0.367066 -19.5341 85.8856 18.7554 5.30338 31.2246 -3.84986 -7.71163 -141.528 6.1859 -1.12804 94.7752 -6.036 -6.31931 31.3232 0.0440498 -1.39077 55.253 68.0701 -93.4747 15.3381 -74.5982 3.16817 
-258.143 44.1038 -420.1 -2.88043 -6.0676 161.627 -169.454 2.65594 -14.3771 -18.1511 -8.48901 37.7677 -29.537 17.495 -9.41026 -143.682 73.1857 142.865 -111.007 -37.7114 -137.589 139.036 -26.708 -126.423 -51.4652 13.3481 -3.60272 -11.228 1.85844 -14.6293 79.3636 -22.5991 40.2043 50.6194 -62.1154 -34.928 -50.7196 -16.6218 0.0502531 -7.77712 2.28326 -6.98737 -117.539 0.772427 -19.4274 85.1579 17.6425 4.42989 33.0784 -3.66642 -7.36032 -141.519 7.13201 0.340856 89.6529 -7.90196 -7.52215 33.9411 0.363456 -0.853168 79.1699 73.7149 -112.806 79.7253 -87.8663 72.5694 
-256.172 44.4514 -419.186 -2.68135 -6.98674 161.986 -168.936 3.4821 -12.0226 -18.1997 -7.11084 35.3979 -30.6161 16.7368 -8.91911 -142.926 73.9949 142.57 -110.354 -37.0995 -137.045 138.701 -29.3564 -125.384 -52.0498 11.2583 -3.33459 -12.1191 2.88239 -17.8714 78.6452 -23.7962 40.8463 57.4238 -56.9734 -33.0432 -53.8631 -13.9971 -0.0142269 -0.162916 2.98727 -18.1577 -113.614 1.00366 -19.5034 83.4914 16.1085 3.35815 35.7003 -3.36392 -6.78607 -142.049 8.6587 1.64184 82.7427 -8.68398 -8.89406 37.9704 0.54905 -0.557329 130.812 71.5073 -160.288 177.331 -68.2702 176.679 
-254.325 44.6857 -418.303 -2.27334 -7.9006 162.059 -168.058 4.16391 -9.21927 -18.6362 -5.61177 31.7384 -31.2464 15.7329 -7.90535 -142.101 74.9378 141.922 -110.4 -36.9707 -137.414 137.495 -32.1755 -124.838 -52.5416 10.8063 -3.20481 -13.3388 3.26643 -18.81 78.0119 -24.8695 41.3996 65.3029 -55.6377 -27.6795 -63.7495 -5.82646 -1.24721 12.1634 0.247434 -24.45 -109.304 0.693304 -20.1701 81.1111 15.1809 2.75164 38.2899 -3.095 -6.27044 -142.632 8.7457 1.97456 76.5869 -10.3531 -9.72813 42.0212 0.92184 -0.255553 157.192 53.2345 175.012 178.199 -41.1203 -176.876 
-252.578 44.8193 -417.422 -1.61427 -8.71143 161.953 -166.278 4.62208 -6.41869 -20.0454 -4.36248 27.5561 -31.0526 15.2108 -7.10412 -141.818 75.3321 141.486 -110.59 -36.4804 -138.851 134.76 -37.4743 -126.638 -56.8071 11.4883 -3.61799 -10.3326 1.90487 -15.0286 77.4333 -25.7896 41.6977 66.0777 -58.0185 -24.1514 -73.4408 1.90799 -2.30854 24.8845 -3.70293 -29.8961 -104.633 -0.0500221 -21.204 78.25 14.8964 2.68654 40.9798 -2.97298 -6.02697 -142.684 8.44713 2.42874 70.8592 -10.6362 -10.8868 45.2444 1.28956 -0.0985713 160.954 18.7663 166.761 177.441 -2.36209 -172.142 
-250.972 44.8585 -416.513 -0.883301 -9.1577 161.719 -164.116 5.08874 -4.52103 -22.1623 -3.51237 24.4776 -30.0174 15.1147 -7.21065 -141.588 75.6454 140.395 -110.136 -35.4224 -139.745 132.564 -43.0889 -128.571 -62.5733 8.85559 -4.49554 -3.11583 0.543548 -10.2729 76.5851 -27.1936 42.2318 64.8458 -58.1102 -22.0165 -80.8065 3.62098 -3.73306 34.6491 -8.44172 -40.4472 -100.018 -1.21736 -22.0145 74.9324 14.3336 2.90189 43.6603 -2.83908 -5.80343 -142.563 7.93021 2.40288 66.143 -8.67182 -11.2302 47.6085 1.26156 -0.349192 145.304 -31.8859 153.428 172.963 53.3581 -163.707 
-249.533 44.7954 -415.541 -0.278871 -9.25549 161.096 -162.458 5.30831 -3.53436 -24.1958 -2.96772 22.1693 -28.3054 14.9062 -7.30239 -141.609 76.3001 139.154 -109.24 -33.756 -140.742 130.494 -46.9152 -131.451 -66.9093 5.75197 -4.96379 5.16499 -0.157668 -5.37945 75.868 -28.4068 42.7289 65.4016 -55.0926 -20.5612 -88.4793 7.78069 -5.23203 41.421 -12.5639 -45.2638 -95.8544 -2.65378 -22.5821 71.8538 13.8705 3.2577 46.2535 -2.67985 -5.5624 -142.385 6.86079 2.56845 61.6739 -9.07868 -11.1463 51.2037 1.36641 -0.464706 61.7412 -57.3197 79.1726 14.2596 64.6982 -0.600757 
-248.194 44.5695 -414.535 0.345304 -8.8813 160.361 -161.717 5.28417 -2.21613 -25.3412 -2.3783 19.4373 -26.5361 14.8755 -7.63557 -141.345 76.3182 137.886 -108.356 -32.2974 -141.394 128.965 -50.0292 -134.446 -70.3177 1.14559 -5.08317 14.6298 -0.0140399 -1.14065 74.734 -29.8888 42.3845 67.2083 -50.3324 -21.8242 -95.1323 22.6947 -6.88387 53.1452 -13.3728 -29.6913 -92.2038 -4.06591 -22.8244 69.2524 14.1643 3.66932 49.0221 -2.64419 -5.49472 -141.804 4.83809 0.323509 58.719 -6.60932 -8.44349 55.6848 1.00898 -1.11175 14.62 -24.879 46.3882 8.13004 20.4035 10.3357 
-246.952 44.2124 -413.534 1.42079 -7.96644 160.099 -161.642 5.31801 0.512384 -25.4451 -1.34461 15.4307 -25.2412 14.7704 -7.99051 -140.442 76.2033 135.931 -107.948 -31.4452 -142.134 128.796 -52.1624 -136.577 -71.7512 -3.79463 -4.77297 23.8019 0.823202 2.63443 73.6378 -31.4485 42.3999 67.2182 -44.6214 -26.054 -98.4416 38.3301 -9.14032 57.8554 -7.26399 -8.0844 -88.9127 -5.06312 -22.6469 67.2424 15.0966 3.89426 51.8348 -2.74417 -5.58986 -140.079 2.56654 -2.71547 56.8197 -1.18414 -4.77934 56.7151 0.191034 -1.98833 0.0138439 -1.05398 48.3307 8.68861 -4.27925 14.2941 
-245.827 43.8261 -412.573 2.35093 -6.7517 159.985 -162.405 5.37452 3.77819 -24.8968 -0.150054 11.0011 -24.1776 14.228 -8.15333 -138.955 76.3247 133.828 -107.507 -30.4881 -143.064 129.811 -53.1575 -138.407 -71.0786 -8.68546 -4.10346 31.8887 2.06026 5.45266 72.9449 -32.5459 42.6701 66.1879 -37.2589 -29.7478 -98.6718 40.4204 -11.8808 49.1789 -4.42977 -3.10707 -86.8498 -5.67741 -22.3252 66.0394 16.6474 4.03989 54.8875 -2.99848 -5.82839 -136.961 4.04433 0.172641 57.0099 -2.19109 -7.03137 50.1808 0.153942 -1.59535 -8.7852 11.7812 55.1762 9.93099 -16.6713 17.1079 
-244.708 43.5124 -411.593 3.25247 -5.60839 159.967 -163.28 5.62454 6.99552 -24.1591 1.20106 6.69466 -23.3513 13.3926 -8.33617 -136.98 76.7665 131.362 -107.09 -29.4141 -144.441 131.293 -53.5919 -139.951 -69.2466 -13.0145 -3.37197 38.1556 3.2332 6.94431 72.4667 -33.5316 43.3306 65.4941 -30.126 -31.958 -97.5877 32.0726 -12.7035 38.2588 -3.67799 -7.07747 -85.5717 -5.98426 -22.05 65.8294 18.1871 4.07175 57.7783 -3.28852 -6.10251 -135.311 6.03975 3.45028 61.3347 -4.17818 -9.87006 41.7199 0.165401 -1.11235 -13.8471 17.8069 61.2315 11.3652 -22.2116 19.7195 
-243.451 43.3489 -410.497 3.96146 -4.62738 159.821 -163.545 6.09357 10.0125 -24.088 2.80554 2.24634 -22.7747 12.1688 -8.09213 -134.53 77.6605 128.083 -106.751 -28.3941 -146.029 132.883 -54.3893 -141.392 -66.7367 -16.5179 -2.45394 42.625 4.22351 8.00834 72.2197 -34.4907 44.5782 65.4932 -23.8582 -34.4061 -94.9987 22.5937 -12.9803 27.2951 -2.0206 -10.2016 -84.8608 -6.15848 -21.738 66.8585 18.0254 3.89475 58.0577 -3.4377 -6.28231 -134.692 6.41761 3.49645 65.7746 -2.91788 -9.57006 37.5971 -0.192165 -1.32084 -15.5632 19.9227 64.6131 12.7309 -21.5202 22.7155 
-242.153 43.4017 -409.376 4.19204 -3.76326 158.989 -162.823 6.62292 12.4678 -25.2851 4.71003 -2.62751 -22.6436 10.4117 -7.15683 -131.326 78.3694 124.446 -106.492 -27.577 -147.429 134.705 -55.9573 -142.849 -64.0253 -18.3009 -1.17699 45.1844 5.22516 10.2335 72.4102 -35.199 46.5294 63.216 -20.8083 -37.7006 -90.4957 10.241 -11.3435 16.5564 0.0581409 -10.1951 -86.1877 -6.16054 -21.2321 69.8527 15.427 3.69403 57.881 -3.38297 -6.30403 -134.003 6.67285 3.43597 68.3783 -3.14116 -9.08602 36.2776 -0.36482 -1.41263 -13.9591 18.9344 64.0726 13.6218 -17.0894 26.7876 
-240.83 43.5713 -408.329 3.76667 -3.13389 157.159 -161.843 7.01386 13.6589 -26.9788 6.69445 -7.06557 -22.7265 8.61742 -6.07503 -128.169 78.5719 120.997 -106.102 -26.8079 -148.306 137.144 -58.1238 -143.82 -61.4172 -18.453 0.21804 46.1503 6.26594 13.7968 72.8221 -35.5594 48.4211 56.0924 -22.1133 -41.466 -83.4897 -2.09055 -6.99855 7.61632 1.23445 -6.59689 -89.1672 -6.49014 -20.5879 72.2516 14.0018 3.84476 59.7323 -3.39769 -6.30879 -133.525 6.53869 2.76587 70.5995 -3.80917 -8.38365 35.2786 -0.370003 -1.3706 -9.09477 13.9043 60.7278 13.7528 -8.58456 31.3861 
-239.368 43.7664 -407.324 2.73966 -2.97067 154.486 -161.099 7.13477 13.5384 -28.3442 8.48241 -10.5878 -23.1867 6.87927 -4.8931 -125.755 78.333 119.044 -105.729 -26.3484 -148.355 140.015 -60.8047 -143.861 -59.0077 -18.4377 1.50296 46.1437 6.9536 16.7365 72.8224 -36.0193 49.2765 47.7013 -24.1431 -45.2719 -74.9089 -11.3964 -2.1694 2.16644 1.28881 -3.08285 -92.9941 -7.19037 -20.539 74.0954 16.0823 4.45279 60.1772 -3.79032 -6.65097 -132.931 6.36079 1.17076 71.8895 -4.53788 -7.57502 35.1241 -0.285463 -1.24523 -1.5274 4.64059 56.6127 13.1864 2.74367 34.9099 
-237.825 44.0644 -406.288 1.54132 -2.99051 151.496 -160.234 7.00846 12.6706 -29.5448 10.0065 -13.4877 -23.9316 5.29991 -3.41722 -124.396 78.1929 118.559 -105.709 -26.4499 -147.981 143.559 -63.3368 -142.443 -56.5534 -17.6177 2.67659 44.9081 7.27905 19.6801 72.8174 -36.2084 49.608 40.0778 -25.2299 -47.4193 -64.7535 -20.9271 2.15469 -4.23351 2.64576 -6.85104 -98.0111 -7.7342 -21.1227 77.2622 18.9707 5.1583 57.5786 -4.31019 -7.1979 -132.011 5.95939 -1.16557 72.4997 -5.36491 -6.46447 36.433 -0.0247646 -1.01604 10.5692 -10.5189 53.8054 12.5827 18.8034 34.9286 
-236.228 44.3342 -405.128 0.16773 -2.69407 148.365 -159.606 6.48509 10.7046 -31.0007 10.9173 -14.9886 -24.5227 4.48879 -2.33347 -124.315 78.0811 119.809 -105.698 -26.6422 -147.363 148.475 -65.3979 -138.991 -53.4733 -16.2357 3.70866 42.5726 7.1019 22.1414 73.2577 -35.5909 49.7559 34.7221 -30.8356 -47.346 -58.2168 -19.9867 5.4919 -0.738045 1.62791 -4.67324 -104.084 -8.10791 -21.9357 81.2112 21.89 5.84444 52.5851 -4.81184 -7.87318 -131.293 5.61923 -2.10988 73.146 -7.82616 -6.12031 37.7015 0.475512 -0.483099 37.4895 -34.8303 62.5941 14.7232 48.8077 26.78 
